<svg width="42" height="42" viewBox="0 0 42 42" fill="none" xmlns="http://www.w3.org/2000/svg">
<rect width="42" height="42" rx="9.13043" fill="white"/>
<path d="M20.8862 36.4579L11.9998 33.9909L10.0195 11.7796H31.7795L29.7971 33.9875L20.8862 36.4579Z" fill="#264DE4"/>
<path d="M28.1001 32.5733L29.7942 13.5957H20.8997V34.5696L28.1001 32.5733Z" fill="#2965F1"/>
<path d="M14.5593 21.8336L14.8035 24.5577H20.8995V21.8336H14.5593Z" fill="#EBEBEB"/>
<path d="M14.0686 16.3199L14.3162 19.044H20.8994V16.3199H20.89H14.0686Z" fill="#EBEBEB"/>
<path d="M20.8996 28.9084L20.8877 28.9116L17.8538 28.0924L17.6599 25.9198H16.1857H14.9253L15.3069 30.1971L20.8871 31.7462L20.8996 31.7427V28.9084Z" fill="#EBEBEB"/>
<path d="M15.1406 5.74356H18.44V7.1233H16.5204V8.50305H18.44V9.88279H15.1406V5.74356Z" fill="black"/>
<path d="M19.0999 5.74356H22.3992V6.94334H20.4796V7.18329H22.3992V9.94278H19.0999V8.68301H21.0195V8.44306H19.0999V5.74356Z" fill="black"/>
<path d="M23.0593 5.74356H26.3587V6.94334H24.4391V7.18329H26.3587V9.94278H23.0593V8.68301H24.979V8.44306H23.0593V5.74356Z" fill="black"/>
<path d="M27.2223 21.8336L27.7141 16.3199H20.8901V19.044H24.7287L24.4808 21.8336H20.8901V24.5577H24.2446L23.9284 28.0907L20.8901 28.9107V31.7448L26.4747 30.197L26.5157 29.7368L27.1559 22.5651L27.2223 21.8336Z" fill="white"/>
</svg>
