<svg width="42" height="42" viewBox="0 0 42 42" fill="none" xmlns="http://www.w3.org/2000/svg">
<rect width="42" height="42" rx="9.13043" fill="white"/>
<path d="M31.8813 11.6778L29.8987 33.8883L20.9867 36.359L12.0992 33.8918L10.1187 11.6778H31.8813Z" fill="#E44D26"/>
<path d="M21 34.4705L28.2013 32.474L29.8956 13.4941H21V34.4705Z" fill="#F16529"/>
<path d="M17.146 18.9431H21.0001V16.2186H20.9907H14.1685L14.2337 16.9495L14.9033 24.4574H21.0001V21.733H17.3949L17.146 18.9431Z" fill="#EBEBEB"/>
<path d="M17.7598 25.8197H16.2854H15.0249L15.4066 30.0975L20.9874 31.6467L21 31.6433V28.8087L20.988 28.8119L17.9538 27.9926L17.7598 25.8197Z" fill="#EBEBEB"/>
<path d="M12.1436 5.64096H13.5281V7.00888H14.7946V5.64096H16.1792V9.78334H14.7947V8.39623H13.5281V9.78334H12.1436L12.1436 5.64096Z" fill="black"/>
<path d="M17.9999 7.01463H16.781V5.64096H20.604V7.01463H19.3845V9.78334H17.9999L17.9999 7.01463Z" fill="black"/>
<path d="M21.2104 5.64096H22.6541L23.5422 7.09647L24.4294 5.64096H25.8736V9.78334H24.4948V7.73015L23.5422 9.203H23.5184L22.5652 7.73015V9.78334H21.2104V5.64096Z" fill="black"/>
<path d="M26.563 5.64096H27.9479V8.41411H29.895V9.78334H26.563V5.64096Z" fill="black"/>
<path d="M20.9905 24.4574H24.3453L24.0291 27.9908L20.9905 28.811V31.6454L26.5758 30.0975L26.6167 29.6372L27.257 22.4646L27.3234 21.733H26.5893H20.9905V24.4574Z" fill="white"/>
<path d="M20.9905 18.9364V18.9431H27.5626H27.5713L27.626 18.3307L27.7501 16.9495L27.8153 16.2186H20.9905V17.9107V18.9364Z" fill="white"/>
</svg>
