<svg width="145" height="205" viewBox="0 0 145 205" fill="none" xmlns="http://www.w3.org/2000/svg">
<path d="M25.984 77.244H17.704C28.744 103.74 55.24 164.184 55.24 187.368V204.48H2.8V47.712C2.8 35.292 2.524 22.044 0.0400008 3H46.684C48.616 11.556 48.616 16.524 48.616 24.804C48.616 36.396 45.028 56.544 39.508 72.276H47.788L55.516 39.156C61.864 11.832 66.004 0.239986 75.112 0.239986C112.096 0.239986 144.664 25.08 144.664 72C144.664 117.816 113.2 143.76 83.944 143.76C51.652 143.76 32.332 92.424 25.984 77.244ZM74.836 90.768C84.772 90.768 94.432 85.524 94.432 72C94.432 58.476 83.944 53.232 74.836 53.232C65.728 53.232 55.24 58.476 55.24 72C55.24 85.524 64.9 90.768 74.836 90.768Z" fill="#FF69B4"/>
</svg>
