<svg width="145" height="197" viewBox="0 0 145 197" fill="none" xmlns="http://www.w3.org/2000/svg">
<path d="M91.6 194L107.28 143.04H98.88C94.96 156.48 86 196.8 62.48 196.8C32.52 196.8 0.600001 170.48 0.600001 124C0.600001 74.16 37 51.2 71.16 51.2C87.12 51.2 90.2 94.88 98.88 124.28H107.28C100.84 104.96 91.32 46.44 91.32 26.56V0.799984H144.52V194H91.6ZM71.44 144.44C81.52 144.44 91.32 137.72 91.32 124C91.32 110.28 80.68 103.56 71.44 103.56C62.2 103.56 51.56 110.28 51.56 124C51.56 137.72 61.36 144.44 71.44 144.44Z" fill="#FF69B4"/>
</svg>
