<svg width="99" height="137" viewBox="0 0 99 137" fill="none" xmlns="http://www.w3.org/2000/svg">
<path d="M98.5123 53.3941C97.8702 52.5174 96.6831 51.9779 95.4024 51.9779H57.5767L84.0367 3.98516C84.5242 3.10558 84.4144 2.09079 83.7489 1.28664C83.0834 0.48249 81.9521 0 80.7398 0H38.7088C37.1835 0 35.8237 0.761451 35.3165 1.89865L0.757093 79.3646C0.368583 80.2356 0.537657 81.202 1.21215 81.9563C1.88665 82.7107 2.98203 83.159 4.14936 83.159H44.8638L25.0659 133.307C24.726 134.171 24.9238 135.113 25.6019 135.841C26.28 136.57 27.3556 137 28.4996 137H38.3005C39.5937 137 40.7862 136.451 41.4265 135.562L98.5285 56.2335C99.1634 55.3525 99.1562 54.2708 98.5123 53.3941Z" fill="#FF69B4"/>
</svg>
