<svg width="663" height="663" viewBox="0 0 663 663" fill="none" xmlns="http://www.w3.org/2000/svg">
<path fill-rule="evenodd" clip-rule="evenodd" d="M207.71 3.70278C241.446 -11.4149 270.673 22.7351 260.119 52.3861C224.308 152.996 246.311 267.267 320.643 341.57C395.353 416.253 510.38 438.203 611.317 401.75C640.687 391.143 673.91 420.083 659.39 453.017C658.96 453.99 658.527 454.96 658.09 455.933C632.247 513.24 590.907 567.133 537.423 603.267C480.417 641.78 413.19 662.357 344.387 662.357H344.353C264.345 662.27 186.857 634.363 125.172 583.423C63.4877 532.483 21.4484 461.677 6.26439 383.143C-8.91961 304.61 3.69805 223.244 41.9534 152.992C78.2194 86.3938 139.203 34.6394 206.718 4.14878L207.71 3.70278Z" fill="#5D8EFF"/>
</svg>
