<svg width="515" height="526" viewBox="0 0 515 526" fill="none" xmlns="http://www.w3.org/2000/svg">
<path fill-rule="evenodd" clip-rule="evenodd" d="M161.365 2.9405C187.574 -9.06495 210.28 18.0547 202.081 41.6016C174.26 121.499 191.353 212.246 249.101 271.252C307.141 330.561 396.503 347.992 474.918 319.043C497.735 310.62 523.545 333.603 512.265 359.756C511.931 360.529 511.594 361.299 511.255 362.072C491.178 407.581 459.062 450.38 417.512 479.075C373.225 509.659 320.998 526 267.546 526H267.52C205.364 525.931 145.165 503.77 97.2436 463.316C49.3222 422.863 16.6628 366.633 4.86666 304.267C-6.92944 241.901 2.87293 177.286 32.5926 121.497C60.7669 68.6082 108.143 27.5084 160.594 3.29469L161.365 2.9405Z" fill="#5D8EFF"/>
</svg>
