<svg width="724" height="725" viewBox="0 0 724 725" fill="none" xmlns="http://www.w3.org/2000/svg">
<path d="M362.045 543.81C462.018 543.81 543.062 462.652 543.062 362.54C543.062 262.427 462.018 181.27 362.045 181.27C262.072 181.27 181.028 262.427 181.028 362.54C181.028 462.652 262.072 543.81 362.045 543.81Z" fill="#5D8EFF"/>
<path fill-rule="evenodd" clip-rule="evenodd" d="M135.766 362.449C135.766 337.401 115.527 317.135 90.5141 317.135H45.2514C20.2387 317.135 0 337.401 0 362.449C0 387.497 20.2387 407.764 45.2514 407.764H90.5028C115.527 407.764 135.766 387.497 135.766 362.449Z" fill="#5D8EFF"/>
<path fill-rule="evenodd" clip-rule="evenodd" d="M138.062 522.659L106.024 554.753C88.3421 572.449 88.3421 601.133 106.024 618.828C123.695 636.523 152.339 636.523 170.021 618.828L202.07 586.745C219.741 569.05 219.741 540.355 202.07 522.659C184.377 504.952 155.744 504.952 138.062 522.659Z" fill="#5D8EFF"/>
<path fill-rule="evenodd" clip-rule="evenodd" d="M362.045 589.045C337.032 589.045 316.794 609.312 316.794 634.359V679.685C316.794 704.733 337.032 725 362.045 725C387.058 725 407.297 704.733 407.297 679.685L407.251 634.359C407.297 609.312 387.013 589.045 362.045 589.045Z" fill="#5D8EFF"/>
<path fill-rule="evenodd" clip-rule="evenodd" d="M585.983 522.704C568.346 504.964 539.702 504.964 522.032 522.659C504.361 540.354 504.361 569.05 522.032 586.745L554.036 618.783C571.706 636.569 600.35 636.478 618.021 618.783C635.692 601.087 635.737 572.448 618.021 554.708L585.983 522.704Z" fill="#5D8EFF"/>
<path fill-rule="evenodd" clip-rule="evenodd" d="M678.839 317.135L633.486 317.225C608.564 317.135 588.325 337.401 588.325 362.449C588.235 387.497 608.564 407.764 633.486 407.764H678.749C703.852 407.854 724 387.497 724 362.449C724.045 337.447 703.852 317.135 678.839 317.135Z" fill="#5D8EFF"/>
<path fill-rule="evenodd" clip-rule="evenodd" d="M585.983 202.285L617.976 170.236C635.782 152.495 635.647 123.856 617.976 106.15C600.339 88.3977 571.706 88.3978 554.036 106.104L522.032 138.232C504.361 155.849 504.361 184.521 522.032 202.228C539.612 220.037 568.346 219.946 585.983 202.285Z" fill="#5D8EFF"/>
<path fill-rule="evenodd" clip-rule="evenodd" d="M362.045 135.853C387.013 136.035 407.297 115.587 407.297 90.6295V45.3149C407.297 20.1766 387.058 0.000302774 362.045 0.000302774C337.032 -0.0903264 316.794 20.1766 316.794 45.2356L316.884 90.6408C316.794 115.587 337.032 135.853 362.045 135.853Z" fill="#5D8EFF"/>
<path fill-rule="evenodd" clip-rule="evenodd" d="M138.153 202.239C155.744 219.935 184.298 219.935 202.025 202.194C219.831 184.623 219.741 155.86 202.115 138.198L170.111 106.161C152.35 88.3638 123.797 88.4997 106.115 106.161C88.2968 123.822 88.2968 152.495 105.979 170.202L138.153 202.239Z" fill="#5D8EFF"/>
</svg>
