<svg width="86" height="89" viewBox="0 0 86 89" fill="none" xmlns="http://www.w3.org/2000/svg">
<path d="M0.0400004 89V0.935997H30.632C43.432 0.935997 53.8427 2.77066 61.864 6.43999C69.9707 10.1093 75.9013 15.1867 79.656 21.672C83.496 28.1573 85.416 35.7093 85.416 44.328C85.416 58.408 80.7653 69.3733 71.464 77.224C62.248 95.0747 88.2107 89 0.352 89H0.0400004ZM28.328 62.6H36.52C43.3467 66.6 48.424 64.552 51.752 60.456C55.08 56.2747 56.744 50.8133 56.744 44.072C56.744 37.8427 55.1227 32.8507 51.88 29.096C48.7227 25.256 43.6027 23.336 36.52 23.336H28.328V66.6Z" fill="black"/>
</svg>
