
<svg width="76" height="92" viewBox="0 0 76 92" fill="none" xmlns="http://www.w3.org/2000/svg">
<path d="M37.064 91.024C24.9467 91.024 15.8587 87.5253 9.8 80.528C3.82667 73.5307 0.84 62.224 0.84 46.608C0.84 30.9067 4.12533 19.344 10.696 11.92C17.352 4.41066 26.7813 0.655998 38.984 0.655998C51.272 0.655998 60.4027 3.984 66.376 10.64C72.4347 17.296 75.464 28.432 75.464 44.048C75.464 59.664 72.0933 71.3973 65.352 79.248C58.6107 87.0987 49.1813 91.024 37.064 91.024ZM24.648 21.776C21.576 26.2133 20.04 33.936 20.04 44.944C20.04 55.952 21.6613 63.9733 24.904 69.008C28.1467 74.0427 32.584 76.56 38.216 76.56C43.9333 76.56 48.3707 74.2133 51.528 69.52C54.6853 64.7413 56.264 56.848 56.264 45.84C56.264 25.36 50.12 15.12 37.832 15.12C32.1147 15.12 27.72 17.3387 24.648 21.776Z" fill="black"/>
</svg>
