<svg width="81" height="92" viewBox="0 0 81 92" fill="none" xmlns="http://www.w3.org/2000/svg">
<path d="M67.928 91.3596C61.784 91.3596 56.7067 90.4636 52.696 88.6716C48.6853 86.7943 45.4853 84.2343 43.096 80.9916C40.7067 77.7489 38.9147 73.9516 37.72 69.5996C36.5253 65.2476 35.7147 60.5543 35.288 55.5196H29.272V89.3116H1.24V1.24762H37.464C51.4587 1.24762 61.528 3.72228 67.672 8.67161C73.9013 13.5356 77.016 20.149 77.016 28.5116C77.016 33.5463 75.6507 38.069 72.92 42.0796C70.1893 46.005 65.7947 49.2903 59.736 51.9356C60.0773 53.8129 60.376 55.3489 60.632 56.5436C60.888 57.7383 61.272 59.0609 61.784 60.5116C62.8933 63.5836 64.2587 65.717 65.88 66.9116C67.5867 68.1063 69.8907 68.7036 72.792 68.7036C74.6693 68.7036 76.5467 68.4476 78.424 67.9356L79.96 88.9276C78.2533 89.6103 76.4187 90.165 74.456 90.5916C72.5787 91.1036 70.4027 91.3596 67.928 91.3596ZM29.272 37.9836H34.136C40.4507 37.9836 44.888 37.3009 47.448 35.9356C50.0933 34.4849 51.416 32.053 51.416 28.6396C51.416 25.7383 50.3493 23.6476 48.216 22.3676C46.0827 21.0023 42.712 20.3196 38.104 20.3196H29.272V37.9836Z" stroke="black"/>
</svg>
