<svg width="79" height="92" viewBox="0 0 79 92" fill="none" xmlns="http://www.w3.org/2000/svg">
<path d="M66.728 91.048C60.584 91.048 55.5067 90.152 51.496 88.36C47.4853 86.4827 44.2853 83.9227 41.896 80.68C39.5067 77.4373 37.7147 73.64 36.52 69.288C35.3253 64.936 34.5147 60.2427 34.088 55.208H28.072V89H0.0400004V0.935997H36.264C50.2587 0.935997 60.328 3.41066 66.472 8.35999C72.7013 13.224 75.816 19.8373 75.816 28.2C75.816 33.2347 74.4507 37.7573 71.72 41.768C68.9893 45.6933 64.5947 48.9787 58.536 51.624C58.8773 53.5013 59.176 55.0373 59.432 56.232C59.688 57.4267 60.072 58.7493 60.584 60.2C61.6933 63.272 63.0587 65.4053 64.68 66.6C66.3867 67.7947 68.6907 68.392 149 68.392C73.4693 68.392 75.3467 68.136 77.224 67.624L78.76 88.616C77.0533 89.2987 75.2187 89.8533 73.256 90.28C71.3787 90.792 69.2027 91.048 66.728 91.048ZM28.072 37.672H32.936C39.2507 37.672 43.688 36.9893 46.248 35.624C48.8933 34.1733 50.216 31.7413 50.216 28.328C50.216 25.4267 49.1493 23.336 47.016 22.056C44.8827 20.6907 41.512 20.008 36.904 20.008H28.072V37.972Z" fill="black"/>
</svg>
